<?xml version="1.0" encoding="utf-8"?>
<!-- Generator: Adobe Illustrator 27.2.0, SVG Export Plug-In . SVG Version: 6.00 Build 0)  -->
<svg version="1.1" id="Graphic_Elements" xmlns="http://www.w3.org/2000/svg" xmlns:xlink="http://www.w3.org/1999/xlink" x="0px"
	 y="0px" viewBox="0 0 1100.6 764.8" style="enable-background:new 0 0 1100.6 764.8;" xml:space="preserve">
<style type="text/css">
	.st0{fill:#FFFFFF;}
</style>
<g id="Layer_1_00000103258876027380237140000007285808757275292842_">
	<path id="path877_00000080894289609781807440000013129886155796456086_" class="st0" d="M783.5,0c-1.3,0-2.6,0.1-3.9,0.3
		c-5.5,0.6-10.8,2.1-15.8,4.6c-5.1,2.6-9.7,6.1-13.5,10.3c-4,4.5-7.6,9.4-10.7,14.5c-1.9-0.2-3.8-0.5-5.7-0.8
		c-2.8-0.4-7-1.4-11.8-2.6s-10.7-3.2-14.9-4.7s-7-2.8-9.5-3.8c-2.7-0.8-5.4-1.5-8.2-2c-3.2-0.6-7.2-1.2-11-1.9s-7.1-1.3-10.9-2
		s-7.8-1.1-15.2-2.1C645,9,634.3,7.9,626,6.9s-14.2-1.4-18.8-1.5c-3.6-0.2-7.2,0-10.7,0.7c-2.5,0.7-4.2,1.5-7.1,2.5
		c-3.1,0.8-7.4,1.9-11,3.2c-3.4,1.2-6.6,2.7-9.8,4.5c-2-1-4-2.1-5.4-2.8s-2.1-1.4-3.5-1.4c-1.6-0.1-3.2,0.3-4.6,1.1
		c-1.7,1-3.3,2.3-4.5,3.9c-1.2,1.7-2.4,3.8-4.2,5.3c-1.9,1.7-4,3.1-6.3,4.2c-2.2,1.1-4.3,2.3-6.3,3.6c-1.6,1.1-3,2.4-4.3,3.9
		c-1.2,1.7-2.5,3.2-4,4.6c-1.7,1.4-3.9,2.6-5.9,4c-2.4,1.5-4.4,3.5-6,5.9c-2.6,4-4.6,8.3-6,12.8c-2.1,5.6-3.5,11.4-4.2,17.3
		c-0.4,4.8,0.2,9.6,1.7,14.2c1.4,4.5,3.6,8.6,8.7,14.9s12.7,14.2,19.4,21.5c6.7,7.3,12.4,13.4,19.4,20.2s15.1,14.4,20.2,18.4
		s7.1,4.8,9.2,6.3c2.3,1.7,4.4,3.9,6,6.3c1.8,2.4,3.2,4.7,4.9,7c1.3,2.1,2.9,4,4.6,5.7c1,0.9,2.2,1.6,3.5,2c0.1,1.1,0.5,2.1,1.1,2.9
		c1,1.1,2,2.2,3.2,3.1c-0.4,0.8-0.5,1.7-0.3,2.5c0.6,1.6,1.2,3.2,2,4.8c-2.9,2.6-5.6,5.4-8.1,8.4c-3.1,3.6-6.8,8.5-10.5,13.4
		c-4.7,0-9.5,0.1-13.9-0.6s-8.4-2.1-17.8-7.4s-24.4-14-34.9-18.8c-10.3-4.9-16.5-5.6-20.2-5.4s-5.6,1.1-6.8,2.5s-1.8,3.3-1.7,5.2
		c0.1,2.1,1.1,4.2,2,6.3c-3.5,0.6-7,1.3-10.5,2.2c-2.9,0.9-5.7,2.1-8.4,3.6c-7.5-1.9-14.8-4.3-22-7.1c-9.6-3.9-22.9-10-34.4-13.8
		c-10.4-3.2-21.1-4.9-31.9-5c-9.9-0.1-19.9,0.6-29.7,2.1c-9.7,1.6-19.2,4.2-28.5,7.7c-8.2,3.2-16.1,7.1-23.7,11.6
		c-6.6,3.9-13.1,8.2-19.2,12.8c-5.3,4.2-9.2,8.1-14.2,11.6s-11.4,6.4-16,9.4c-4.6,3-8.1,5.9-12.7,8.6c-5.5,3.1-11.2,6-17,8.5
		c-6.1,2.8-12.7,5.6-18.1,9.2s-9.4,7.8-13.5,12.1c4.7-3.9,9.3-7.9,13.9-10.7c4.3-2.6,8.9-4.8,13.7-6.4c-4.8,3.3-9.5,6.9-14,10.7
		c-3.6,3.5-7.1,7.2-10.3,11c-3.5,3.8-7.4,7.3-11.6,10.3c-5.2,3.5-12.1,7.4-19.2,11.3c4.9-1.7,9.6-3.5,14.2-5.4
		c4.7-2,9.2-4.2,13.7-6.4c-3.8,3.1-7.7,6.1-11.9,8.8c-6,3.9-14.8,9.2-23.6,14.7c9.2-3.9,18.4-7.8,24.4-10.9c4.1-1.9,8-4.3,11.6-7.1
		c-3.8,3.8-7.5,7.5-11.3,10.6s-7.4,5.2-12.4,8.4s-11.9,7.8-18.5,12.3c3.4-2.1,7-4.1,10.6-5.8c4.2-1.8,9.2-3.6,14.1-5.4
		c-3,1.6-5.9,3.5-8.6,5.6c-5.8,4.5-10.9,9.7-15.3,15.6c-5.4,7.2-10,16.6-14.8,25.9c4.6-6.7,9.2-13.4,13.5-18s8.4-7.1,12.4-9.8
		c-3.5,5-6.8,10-9.1,16.6s-3.6,15.1-4.9,23.3c3.2-10.3,6.4-20.5,9.9-27.9c2.7-5.9,6.2-11.4,10.3-16.3c-1.7,3.8-3.5,7.7-5.7,13.7
		s-5.2,14.2-10.7,26.9c-5.6,12.5-13.9,29.6-21.6,42s-14.8,20.1-24.3,26.3c-9.3,6.3-21.2,11-32.9,15.9c10-2.9,19.9-5.7,28.3-9.6
		s14.9-8.5,22.3-17.3s15.8-22,24-35.1c-3.2,6.5-6.4,13-11.2,21.3s-10.9,18.7-17.9,25.7s-14.6,10.5-24.8,13.8s-22.5,6.1-32.5,8.6
		s-17.7,4.5-23.7,7.1c-5.1,2.3-9.9,5.2-14.4,8.6c6.6-3.6,13.1-7.1,20.2-9.3s14.9-2.9,22.4-3.9s15.1-2.4,22.4-3.8
		c-7.1,2.8-14.4,5.6-23,8.9s-18.7,7-30.5,10.2s-25.1,6.1-38.5,9.1c5.2,0.3,10.4,0,15.5-0.8c7.1-1.1,17.4-3.5,26.3-5.3
		s16.6-2.7,24.3-3.8c-3.9,1.3-7.7,2.8-11.4,4.6c-5.2,2.8-9.8,6.6-13.5,11.3c-3.1,3.9-5.9,8.1-8.5,12.3c0.1-0.2,0.2-0.3,0.4-0.5
		c4-5.2,10.9-12.1,16.7-15.9s10.9-4.5,15.9-5.7s10.2-3.2,21-8.4s27.5-13.8,44.1-22.3c-10.2,5.6-20.4,11.2-29.3,16.7
		c-8.9,5.4-16.7,11-25.1,17.3s-17.5,13.2-26.7,20.1c10.5-7.1,20.8-14.4,28.9-19.7s13.5-8.9,19.2-12.4c-15.1,11.2-30,22.3-43.7,30.7
		s-26.1,14-38.5,19.5c7.3-1.9,14.5-4.4,21.4-7.4c7.7-3.3,15.8-7.9,23.6-12.4s15.2-8.9,22.6-13.2c-8.2,6-16.4,12-24.1,19.1
		s-14.8,15.3-18,22.5s-2.8,13.2-2.2,19.4c-0.1-4.5-0.4-9,1.2-14s4.9-10.5,11.4-16.2s16-11.6,28.2-20.6s26.8-20.9,41.6-32.9
		c-10.7,9.8-21.5,19.5-28.9,28.2s-11.9,16-16,23.4c4.4-7.4,9.6-14.2,15.6-20.4c8.6-8.9,22.4-21.5,36.3-33.9
		c-13.1,14-26.1,27.9-36.3,40s-17.6,22.6-24.8,32.9c16-19.8,32.1-39.6,48.8-56s34.4-29.7,52-43c-8.2,6.7-16.3,13.4-23.7,19.9
		s-13.7,13-19.9,19.4c10.7-10,21.3-20.1,32.5-28c11-8.1,22.4-14.1,33.3-21.2s21-14.9,26.9-22.5c5.9-7.4,7.4-14.3,8.8-21.3
		c0.4,0.7,0.7,1.2,2,3.1s3.1,4.7,5,7.8c3.1,4.3,6.5,8.4,10.3,12.1c4.5,4.3,9.3,8.4,14.4,12.1c3.9,2.8,6,3.8,10,7.1
		c4.2,3.3,10.3,9.1,16.5,14.8c-0.8,4.7-2,9.3-3.6,13.8c-2.5,7-6,13.6-10.5,19.5c-5.7,7.7-14.2,16.6-19.4,22s-7.4,7-9.1,9.5
		c-4.6,6.3-5.2,14.6-1.5,21.5c2.1,4,5.3,7.4,9.2,9.6c3.9,2.4,8.6,3.8,16.7,7.2c8.1,3.4,19.5,8.9,33.6,15.8
		c14.1,6.9,30.8,14.8,44.5,22.6c10.6,6.1,20.8,12.8,30.5,20.1c6,4.6,7.3,6.3,8.5,7.7c1.1,1.3,2.4,2.4,3.9,3.1
		c1.4,0.6,2.9,0.7,4.2,1.3c1.2,0.8,2.2,1.8,3.1,2.9c1.1,1,2.2,2,3.1,3.2c0.5,0.9,0.4,2-0.3,2.8c-0.8,0.8-1.8,1.5-2.9,2
		c-0.7,0.4-1.2,1-1.5,1.7c-0.6,1.5-1,3-1.2,4.6c-0.3,2.3-0.3,4.6-0.1,6.8c0.2,1.6,0.6,3.1,1.1,4.6c-0.7-0.4-1.5-0.6-2.4-0.7
		c-0.7-0.2-1.4,0.1-1.8,1.5c-0.4,1.4-0.6,3.9,1.4,8.9c2.7,6.4,6.1,12.5,10.2,18.2c3.2,4.4,7.1,8.2,11.6,11.3c3.1,2,4.7,1.8,6.5,0.7
		s3.9-3.3,6.4-8.9c2.4-5.4,5.3-14.3,7-19.8s2.4-7.4,2.4-9.6c-0.2-2.6-0.5-5.2-1.1-7.8c-0.6-3.2-1-7.1-1.4-11
		c13.9,11,27.9,22,36.5,29s11.7,10,13.4,12c1.1,1.4,2.1,2.9,3.1,4.5c1.6,1.9,3.4,3.7,5.3,5.3c1.2,1.1,2.6,1.8,4.2,2.2
		c1.1,0.3,2.2,0,4,1c2.4,1.3,4.4,3.1,6,5.3c1.7,2.5,3.2,5.3,4.3,8.1c-2.5,1.7-5,3.2-6.7,5.3c-1.7,2.3-2.6,5.2-2.5,8.1
		c0.1,3.3,1.4,7.3,2.5,11.3c-0.8,1-1.2,2.2-1.1,3.5c0,2,0.8,4.9,4.5,9.2c4.7,5.3,10.2,9.8,16.3,13.4c4.9,2.9,10.3,4.7,16,5.2
		c4.3,0.4,7.4-0.3,9.1-1.2c1.3-0.7,2.3-1.9,2.6-3.3c-1.8-13.4-3.8-26.9-5.6-40.3c-0.7-1-1.3-2-1.8-3.1c-1.1-2.4-2.1-4.8-2.9-7.2
		c-1.3-3.9-2.8-7.6-4.6-11.3c-2.8-5.3-7.2-12.5-9.9-18.4c-1.7-4.1-2.9-8.5-3.5-12.9c-0.4-2.1-1.6-4-3.4-5.3
		c-2.1-1.4-5.2-3.3-9.1-6.3s-8.4-6.4-12.8-10c2.7,0.8,5.4,1.9,8,3.1c4.4,2.1,8.6,4.7,12.4,7.8c4.2,3.6,8.2,8.2,11,10.7s4,2.9,6,3.3
		s4.7,0.6,8.6,1s8.9,1,17.6,2.4s20.8,3.9,30.3,5.9s16.2,3.5,21.9,5.2s10.2,3.8,13.8,4.7c3.3,1.1,6.9,1.1,10.3,0.1
		c4.5-1.1,8.8-2.6,13-4.6c4.2-2.1,7.9-4.2,10.5-6.4c2.1-2.1,3.7-4.6,4.7-7.4c1.1-2.9,1.6-5.9,1.7-8.9c0.2-3.3-0.3-7.4,0.3-14.2
		s2.1-16.6,3.6-26.5s2.9-19.8,4.6-28.3s3.6-15.3,4.8-20.8s1.5-9.5,2.1-13.4c1.5-2.7,3.4-5.2,5.4-7.5c2.5-2.8,6.1-5.8,14.8-10
		s22.5-9.9,30.5-13.4s10.6-5,12-5.6c1-0.4,2.2-0.3,3.1,0.3c1,0.4,2.5,0.8,4.9,1.5s5.4,1.7,7.7,2.2c2,0.2,4.1,0.7,6,1.4
		c2.2,0.8,5.2,2.4,9.9,4.6s11.4,5.2,23.2,9.3s28.7,9.2,37.7,12.1s9.9,3.3,10.9,3.9c1,0.6,2.1,0.9,3.2,1.1c1.3,0.2,2.6,0.6,3.8,1.2
		c2.4,1.6,4.6,3.6,6.6,5.7c2,2.1,3.7,4.6,4.9,7.2c1,2.4,1,4.6-1.4,8.8c-2.4,4.3-7.1,10.6-12.4,16.9c-5.3,6.1-11,11.8-17,17.2
		c-4.6,4.1-9.8,7.7-15.2,10.7c-2.3,1.2-4.8,2.2-7.4,2.8c-2,0.4-3.9,1-5,2.1c-1,1.2-1.4,2.7-1.2,4.2c-2.2,0-4.5,0-6.3-0.1
		c-1.5,0-3-0.4-4.3-1c-1-0.7-1.4-1.7-2.2-3.2c-0.8-1.8-1.8-3.4-3.2-4.7c-1.1-1.1-2.6-1.6-4.2-1.5c-1.3,0.1-2,0.8-3.2,1.2
		c-1.3,0.5-2.7,0.6-4,0.4c-0.8-0.1-0.8-0.8-1.2-1.2s-1-0.5-3.1-0.3s-5.6,0.5-7.7,1.8s-2.8,3.3-3.5,5.3c-1-0.2-2.1-0.4-3.1-0.7
		c0.6-1.1,1-2.3,1.3-3.5c0-1-0.4-1.5-1.1-1.7s-1.4,0.4-4.3,2.4c-4.4,2.7-8.5,5.7-12.5,8.9c-3.5,2.7-6.5,6.1-8.8,9.9
		c-1.7,3.1-2.1,5.6-1.4,7.7c0.8,2,2.3,3.7,4.2,4.9c1.7,1.1,3.3,1.8,8.1,2.4s12.4,0.7,17.3,1.2s6.5,1.4,8.5,1.5
		c2.2,0.2,4.4,0.1,6.6-0.4c2.6-0.3,5.7-0.8,7.9-0.8s3.6,0.1,5.4-0.2s3.9-1.1,6.8-1.4c3.6-0.2,7.2,0,10.7,0.7c3.8,0.6,7.4,1.5,10.6,2
		s6.3,0.6,8.8-0.4s4.7-2.7,6.4-4.9c3.2-4.7,6.7-9.1,10.5-13.4c7.4-8.7,20.8-23.4,28.3-31.7s9.1-9.9,10.6-11s3.1-1.4,5.9-4
		c3-3.2,5.8-6.6,8.2-10.2c1.8-2.7,1.5-3.3,1.4-4.5c-0.2-1.9-0.3-3.9-0.1-5.9c0.1-3.1,0.7-7.5,0.6-12.3c-0.2-4.7-1.1-9.4-2.8-13.8
		c-1.5-3.7-3.9-7-7.1-9.5c-3.2-2.8-7.8-5.4-11.3-7.8c-3.5-2.4-6.7-5.1-9.6-8.1c-3.6-3.5-8.4-8.7-13.7-14.1s-11.2-11-15.8-15.6
		c-3.6-3.5-7-7.3-10.2-11.3c-2.6-3.7-5-7.5-7.1-11.4c5-6,9.9-11.9,14.4-17.6c4.2-5.2,7.9-10.7,11.2-16.5c3.4-5.8,5.3-12.4,5.4-19.2
		c0.4-7.7-0.8-17.4-1.7-25.2c-0.8-6.2-1.1-12.5-0.7-18.8c0.3-5.3,1.2-10,4.9-17.6s9.8-18.1,17.7-31.5s17.8-29.3,24.8-39.3
		s11.4-13.9,16.6-16.9s11-4.6,17-6.4c2.2,2.1,4.6,4.3,6.1,6c1,1.3,2.1,2.5,3.2,3.6c-0.2,1.1-0.2,2.1,0,3.2c0.2,1.5,0.9,3,2.1,4
		c1,0.9,2.4,1.2,3.6,0.8c1.3-0.2,2.5-0.8,3.5-1.7h0.1c1.2,0.9,2.6,1.6,4,2.1c2.1,0.9,4.4,0.9,6.5,0.1c1.8-0.6,3.6-1.4,5.3-2.4
		c1.1-0.6,1.5-0.3,1.7,0.1s0,1,0.1,1.7s1,1.5,1.3,2.2c0.2,0.5,0.3,1.1,0.1,1.7c0,0.4,0,0.7,1.1,1.5s3.6,2.2,6.1,3.6
		c1.1-0.4,2.4-1,3.6-1.5c2,1.5,4.2,2.8,6.4,3.9c3.2,1.7,7.8,3.8,14.2,6.4c0.7,0.3,1.5,0.7,2.4,1c-0.4,0.9-0.6,1.7-0.8,2.6
		c-0.4,1.7-0.1,3.6,0.7,5.2c1,1.7,2.6,3.1,4.5,3.9c2.3,1,4.8,1.6,7.3,1.7c1.8,0.1,3.9,0,6,0c-0.6,1.5-0.9,3.2-0.8,4.9
		c0.1,2,1,3.6,0.8,5.3c-0.2,1.6-0.7,3.2-1.7,4.5c-0.8,1.2-1.6,2.5-2.2,3.8c-0.4,1.1-0.4,1.7-0.1,1.7s1.1-0.8,1.7-1.4
		c0.4-0.5,0.9-0.8,1.5-0.8c0.5,0.2,0.9,0.6,1.2,1c0.4,0.1,0.8,0,1.1-0.2c0.6-0.2,1.3-0.2,1.9,0.2c1.1,0.7,2.1,1.5,3.1,2.4
		c3.3-3.6,6.8-7.4,9.1-9.5c1.2-1.2,2.7-2.2,4.3-2.8c0.8,0.5,1.6,1.1,2.4,1.8c1,0.8,2.5,2.2,3.8,3.2c1.3,1.1,2.9,1.9,4.6,2.1
		c2.1,0.2,4.2,0.1,6.3-0.4c1.7-0.6,3.5-1,5.3-1.4c1.3-0.1,2.7-0.1,4,0c1.9,0,3.8-0.5,5.4-1.5c1.5-1.3,2.8-2.9,3.6-4.7
		c1.1,0,2.4-0.1,3.6-0.3c1.8-0.1,3.5-0.6,5-1.5c2.5-1.5,4.9-3.3,7.1-5.3c1.7-1.7,2.1-2.8,2.1-4c-0.1-1.5-0.4-2.9-0.7-4.3
		c-0.5-1.3-0.6-2.8-0.3-4.2c0.4-1.3,1.7-2.1,3.1-4.2c1.6-2.3,3-4.8,4.2-7.4c1.1-2.5,1.4-4.3-0.3-7.3s-5.6-6.8-7.8-9.6
		s-3.2-4.2-5.6-7s-6-7.1-11.2-13c-6-6.4-11.6-13.2-16.9-20.2c-4-5.7-7.6-11.6-10.7-17.8c-2.1-4.5-3.1-6.7-4-8.9s-1.8-4.3-2.7-5.9
		c-1-1.7-1.8-2.6-2.5-4c-1-1.8-1.8-3.6-2.5-5.4c-1.1-2.8-2.7-6.8-4-9.5c-1.1-2.1-2.6-4-4.5-5.6c0-0.6,0.2-1.2,0.7-1.5
		c0.8-0.7,2.4-1.8,3.9-2.9c-1.2-1.2-2.6-2.1-4.2-2.8c-2.1-0.8-4.9-1.7-6.7-2.4c-1.3-0.5-2.4-1.2-3.5-2.1c-1-0.9-2.1-1.8-3.3-2.5
		c-1.9-1.2-3.7-2.5-5.4-4c-3.2-2.8-8.8-8-14.4-13c-0.1-1.3-0.3-2.6-0.4-3.9c-2.5-2-5-3.8-7.1-4.5c-2.2-0.8-4.2-0.4-6.1,0
		c-0.9-0.8-1.8-1.6-2.8-2.2c-1.5-1.1-4.2-3.2-7.5-5.7c-3.5-2.3-6.8-4.9-9.9-7.7c-2.7-2.4-3.8-4.2-5.7-6s-4.5-3.4-6.5-5.2
		s-3.9-4-5.4-5.2s-2.9-1.1-4,0.3c-1.5,1.9-2.3,4.3-2.5,6.7c-0.3,2.5-0.2,5,0.3,7.5c-2.2-1-4.5-2-8.1-3.9c-4.7-2.3-9.1-5.2-13.1-8.6
		c-4.7-4-8.9-8.3-12.8-13c1.8,4.6,3.6,9.3,5.3,14.4c1.5,5.2,3.1,10.7,5.7,15.8c2.9,5,6.4,9.7,10.3,13.9c-4.6,2.4-9.1,4.6-13.7,7
		c-2.2-2.8-4.3-5.6-11.3-13.5s-18.5-21.2-30.3-34.4c6,8.4,12,16.7,16,22.9c3,4.5,5.7,9.2,8,14.1c-6.1-6.4-12.3-13-17.3-17.4
		c-4.1-3.6-8.6-6.9-13.2-9.8c1,1.7,2,3.2,2.9,5.2s2,3.9,2.9,6.1c-6.6-6.5-13.2-13-19-17.6c-5-3.8-10.3-7.1-15.9-10
		c6.5,5,13,9.9,18.5,14.9s10.2,10,14.8,15.1c-8.1-5.9-16.2-11.9-24-14.9s-15.2-3.5-22.6-3.8c5.9,0.9,11.8,2.2,17.6,3.9
		c4.8,1.6,9.4,4,13.4,7.1c3.9,3,7.4,6.5,10.5,10.3c2.7,3.3,4.9,7,6.4,11c1.3,3.5,2.2,7.1,2.8,10.8c-2.7-1.5-5.4-2.9-8.2-4.2
		c-2.6-1.2-5.3-2.2-8-3.1c1.2,0.7,2.3,1.6,3.3,2.6c1.2,1.2,2.7,3.1,4.2,4.9c-2.8-1.8-5.8-3.3-8.9-4.3c-4.2-1.4-10.2-2.8-16.3-4.2
		c5.2,2.1,10.2,4.2,13.6,5.9c2.6,1.3,4.9,3,7,5c-3.9-1.2-7.8-2.8-11.4-4.6c-6-2.9-15.5-8.2-25-13.4c5,3.6,9.9,7.2,14.6,10.6
		s8.9,6.5,13.2,9.6c-5.2-1.7-10.2-3.2-17-5.2s-15.3-4.3-25-6.7s-20.5-4.6-31.1-7c9.9,3.6,19.8,7.1,27.9,10.3s14.1,6,20.2,8.9
		c-4.7-1.8-9.5-3.3-14.4-4.5c-5-1.1-10-1.9-15.1-2.4c4.9,1.2,9.8,2.7,14.5,4.5c6.1,2.4,14.1,5.9,22,9.3c-1.8-0.6-3.5-1.1-7.8-2.5
		s-11.3-3.8-17.3-5.4s-11-2.5-16.2-3.5c4.7,2.4,9.6,4.6,12.8,6.4c2.4,1.4,4.8,2.9,7.1,4.5c-7.5-3.6-14.9-7.3-21.5-9.5
		c-5.8-1.9-11.8-3.2-17.8-3.8c6.9,2.6,13.6,5.8,20.1,9.3c6.4,3.5,12.1,7.7,18,11.9c-5-2.1-10.1-4-15.4-5.5
		c-6.1-1.8-13.7-3.4-13.4-3.1s8.4,2.4,14.1,4.6c4.4,1.7,8.5,4,12.3,6.8c-4-1.8-8.1-3.1-12.4-4c-5-1.1-11.6-1.8-18-2.6
		c2,0.4,3.9,0.8,8,2c4.7,1.4,9.4,3.1,14,5.1c2.7,1.2,5.1,2.9,7.1,5c-3.3-1.1-6.8-2.2-9.5-2.9s-4.9-1-6.4-1.3
		c-1.2-0.1-2.3-0.4-3.3-0.8c-0.7-0.6-1.4-1.1-2.2-1.5c-1.7-0.8-3.6-1.4-5.4-1.8c-1.7-0.6-2.8-0.8-3.8-1.2s-1.7-1-2.4-1.3
		c-0.6-0.1-1.1-0.2-1.7-0.4c-0.6-0.4-1-1.1-1.1-1.8c-0.1-1.3-0.2-2.6-0.2-3.9c0-1.1-0.2-2.1-0.4-3.2c-0.3-0.8-0.8-1.5-1.3-2.2
		c-0.3-1-0.4-2-0.3-3.1c-0.1-1.4-0.3-3.1-0.3-4.5c0-1,0.1-2,0.3-3.1c0.2-1.2,0.3-2.4,0.3-3.6s-0.2-2.4-0.5-3.5
		c-0.5-1.1-0.9-2.2-1.3-3.4c-0.2-1.1-0.3-2.3-0.3-3.5c0.2-0.9,0.3-1.9,0.3-2.8c0-0.7-0.6-1-1-1.3c0.7-2.6,1.3-5.3,1.8-7
		c0.3-1.1,0.8-2.1,1.4-3.1l0.4,0.4c0.8,0.8,1.6,1.5,2.5,2.2c1.4,1.1,3.1,2,4.9,2.4c1.9,0.4,3.8,0.3,5.7-0.1c1.1-0.5,2.1-1.2,2.9-2.1
		c0.8-0.7,1.8-1.3,2.8-1.7c0.9-0.2,1.8-0.4,2.6-0.7c0.9-0.5,1.6-1.3,2-2.2c0.5-1,0.8-2,1-3.1c0-0.8,0-1.1,0.3-1.4
		c0.4-0.5,1-0.8,1.7-0.8c0.8-0.1,1.9,0.1,2.6,0c0.7-0.2,1.3-0.8,1.4-1.5c0.2-0.5,0.3-0.9,0.4-1.4c0-0.3,0-0.4,0.4-0.4
		c0.5,0,0.9,0,1.4,0.1c0.8,0.2,1.7,0.2,2.5,0.1c1,0,2-0.4,2.8-1c0.7-0.5,1-1.5,1.1-3.8c0.2-3,0.2-6,0.1-9c0.6-1,1.4-1.8,2.4-2.4
		c2-1.1,3.8-2.6,5.4-4.2c1.9-2.3,3.5-4.9,4.7-7.7c1.9,0.3,3.8,0.4,5.7,0.3c1.3-0.1,2.6-0.6,3.6-1.5c0.7-0.6,0.5-1.1,0.8-2
		c0.6-1.1,1-2.2,1.3-3.4c0.1-1.5,0-3-0.1-4.5c1.1-0.2,2.2-0.4,3.3-0.7c2.1-0.5,5.6-1.7,8.2-2.6c2-0.7,3.8-1.7,5.4-2.9
		c1-0.8,0.8-1.4-0.6-1.7s-4,0-6.7-0.3c-2.6-0.2-5.1-0.6-7.7-1.1c0.4-3.3,0.4-6.7,0.1-10c-0.3-4.1-1.3-8.2-2.8-12
		c-1.8-4.8-4.4-9.2-7.7-13.1c-3.6-4.2-7.7-8-12.3-11.2c-4.4-3.3-9.4-5.8-14.6-7.5C791.2,0.5,787.4-0.1,783.5,0z M32.9,517.8
		c-2.6,3.3-4.8,6.9-6.5,10.8C28.6,524.9,30.7,521.3,32.9,517.8z M721.3,126c0.4,0.1,0.5,0.5,1,2.1c0.8,3.4,1.4,6.8,1.8,10.3
		c0.4,4,0.6,7.7,1.1,10.7c0.4,3,1.2,5.8,2.2,8.6c1,2.9,2.2,5.9,3.1,8.2c0.6,1.9,1,3.8,1.3,5.7c0.2,1.7,0.8,3.3,1.5,4.7
		c1,2.2,3.1,5.6,5,8.9c-2.4-0.5-4.7-1.2-7-2c-1.7-0.7-2.7-1.4-3.9-2s-2.8-1.2-3.9-1.8c-1-0.4-1.8-0.9-2.5-1.7
		c-0.7-0.7-1.5-1.5-2.4-2.2c-1-0.7-2.1-1.3-3.2-1.7c-1.1-0.4-2.3-0.8-3.3-1.2c-0.8-0.4-1-0.8-1-1.1s0.1-0.7,0.1-1.8
		c0-1.3-0.1-2.6-0.4-3.9c-0.1-1.1-0.4-1.4-0.4-2.1c-0.2-0.9-0.1-1.8,0.1-2.7c0.4-0.7,0.8-1.3,1.2-2c0.2-0.7,0.3-1.4,0.3-2.1
		c-0.1-0.8-0.3-1.8-0.4-2.5c-0.5-0.8-0.8-1.8-0.7-2.8c-0.1-1.8,0.1-5.2,0-8.6c-0.2-3.6-0.6-7.3-1.2-10.9c1.8-0.8,3.6-1.7,5-2.5
		s2.2-2,3.3-2.7c0.8-0.6,1.8-1,2.8-1.2C720.9,126,721.1,126,721.3,126L721.3,126z M941.9,277.2l0.8,0.4c1.3,0.9,2.5,1.8,3.6,2.8
		c0.3,0.3,0.5,0.4,0.8,0.7c-0.5,0.3-1,0.5-1.5,0.7c-0.5,0.1-1,0.1-1.5,0c-0.6-0.3-1.1-0.8-1.4-1.4c-0.4-0.7-0.7-1.5-0.8-2.4
		L941.9,277.2L941.9,277.2z M1004,303.8c5.6,2.2,12,4.7,18.4,7.2c-0.3,0.7-0.7,1.3-1,2c-1.1,0.1-2.2,0.3-3.5,0.4
		c-3,0.2-6-0.1-8.9-0.8c-2.5-0.6-4.1-1.5-4.8-2.7c-0.7-1.1-0.9-2.5-0.7-3.8C1003.7,305.4,1003.8,304.6,1004,303.8z M376,462.4
		c0.9-0.1,1.8,0.1,2.5,0.6c1,0.7,2.1,2.2,3.2,5.2c1.4,3.9,2.4,8,2.9,12.1c0.5,5.1,0.4,10.3-0.4,15.3c-1,5.4-2.8,11.2-5.7,19.4
		s-7,18.8-11.3,27.9s-8.5,16.6-12.8,24.1c-1.5-0.4-2.9-1-4.2-1.7c-1.7-1-3.9-2.5-7.4-4.3s-8.5-3.8-13.1-6.1
		c-4.3-2.2-8.4-4.7-12.3-7.7c-3.2-2.7-5.6-5.3-6.7-7.9c-1.1-2.4-1.5-5.2-1-7.8s1.5-5.1,2.9-7.4c1.5-2.5,3.2-4.9,5.2-7.1
		c1.8-2.1,3.9-4,6.1-5.6c2.3-1.5,4.7-2.8,7.2-4c3.3-1.7,6.4-3.8,9.1-6.4c4.3-3.9,10.9-10.7,17.1-17.6S369.9,469.4,376,462.4
		L376,462.4z M474.5,465.4c5.3,2.5,10.6,5,14.5,6.5s6.4,2.2,10,3.6c3.8,1.4,7.5,3,11.2,4.9c2.1,1,4,2.2,5.9,3.6
		c1.5,0.8,3,1.5,4.6,2.1c1.7,0.4,3.6,0.8,5.4,1.4s3.6,1.2,6.3,2.1c3.8,1.2,7.7,2.2,11.6,2.9c5.4,1.1,12.7,2.2,17.7,3.1
		s7.7,1.1,10.2,1.4s4.8,0.2,6.4,0.4c1.3,0.4,2.5,0.9,3.6,1.5c0.8,0.2,1.6,0.3,2.4,0.3h0.4c0.7,2.1,1.7,4,2.9,5.9
		c1.4,1.8,3.3,3.1,5.5,3.8c2.8,0.8,5.6,1.3,8.5,1.4c0.3,1.3,0.6,2.5,1.1,3.8c1.1,1.6,1.9,3.3,2.5,5.2c0.8,2.2,1.4,5.6,2.4,9.5
		s2.2,8.2,3.5,13.2c1.2,5.5,2.1,11,2.7,16.6c0.7,6,1,12.4,1.5,20.2c0.4,7.7,1.1,16.6,1.8,24.8s1.2,15.8,2.4,22.3
		c0.8,5.5,2,10.9,3.6,16.2c1.4,4.2,2.7,7,3.9,9.9c-0.7,1.5-1.4,3.2-2.1,4.7c-4.4,0.3-8.8,0.2-13.1-0.4c-6.3-0.8-15.3-2.8-23-4.5
		s-14.1-3.1-18-3.9c-2.3-0.4-4.6-0.9-6.8-1.7c-1.2-0.5-2.2-1.4-2.9-2.5c-0.5-1-0.8-2-0.8-3.1c-6.1-2.1-12.1-4.3-16.2-5.6
		c-2.6-0.9-5.4-1.5-8.1-2c-1.3-1.3-2.8-2.3-4.5-3.2c-1.1-0.6-2.3-0.8-3.5-0.5c-1.1-0.1-2.1,0.2-3.1,0.7c-0.7,0.6-1.1,1.3-1.2,2.2
		c-1.3-1.3-2.8-2.3-4.5-3.2c-1.7-0.7-3.6-1-5.7-2.1c-2.5-1.3-4.5-3.3-5.8-5.7c-1.3-2.9-2-5.9-2.2-9.1c-0.2-2.4-0.7-4.7-1.4-7
		c-0.5-1.7-1.5-3.1-2.9-4.2c-1.2-0.7-2.4-0.5-4-0.7c-1.7-0.2-3.4-0.4-5-0.8c-1.2-0.3-2.5-0.7-3.6-1.3c-0.7-0.2-1.3-0.6-1.8-1.1
		c-1.2,0.7-2.3,1.5-3.2,2.5c-1,1.1-2,2.5-2.9,3.5s-2.2,1.3-3.1,2c-0.7,0.7-1.3,1.4-2,2.1c-0.7,0.6-1.2,0.7-1.5,0.3
		c-0.2-0.8-0.4-1.6-0.4-2.4c-0.1-0.6-0.6-1-1.1-1.1c-0.4-0.1-0.8,0.1-3.5,2.1c-2.7,1.8-7.7,5.4-12.5,9.1c-9.1-6.5-18-13.1-23.3-17.6
		s-6.8-7.1-7.8-10.5s-1.1-7.9-0.4-14.1c0.8-7.6,2.6-15.1,5.1-22.3c2.8-7.6,6.5-14.8,11-21.5c3.8-5.6,7-8.8,9.6-12
		c2.6-3.2,4.6-6.8,7.5-13.2c2.9-6.4,6.8-15.5,9.8-22.5S472.5,470,474.5,465.4L474.5,465.4z"/>
</g>
</svg>
